<svg xmlns="http://www.w3.org/2000/svg" viewBox="0 0 229.8 139.4"><path d="M803.61,502.19a21.27,21.27,0,0,1,21.27-21.27h44.93v1.4c0,16.2-5.8,40.8-20.6,56.2s-31.8,18.2-47.6,18.2c-16,0-33.2-2.6-48.8-18.6-7.8-8-19.6-24.2-19.6-50.8,0-21.8,8-39.2,19.2-50.6,16.4-17,36.6-19.4,52.4-19.4,11,0,25,1.8,37.4,10l.27.18c13.15,8.9,12,28.68-2,36.22l-4.46,2.4a40.38,40.38,0,0,0-11.8-14.4,33.45,33.45,0,0,0-20.4-6.4c-12.2,0-21.2,4-27.6,10.8-7.4,7.8-11.4,19.2-11.4,31.6,0,15.2,5.6,25,11.2,30.6,7.8,8,16.8,10.4,27,10.4,13.2,0,20.2-4.6,23.2-7.2a31.13,31.13,0,0,0,9.6-15.8h-32.2Z" transform="translate(-733.21 -417.32)" style="fill:#fff"/><path d="M937,553.72H861l40-43.6c7-7.8,17.6-20.8,21.8-27.2,3-4.8,8-13.4,8-22.6,0-5-2-10.2-5.2-13.2-2.6-2.4-7-3.8-12.2-3.8-5.8,0-9.6,2-12.2,4.8l-.11.12a46.64,46.64,0,0,1-35,16.28h-1.33c1-11.6,5.6-24.8,13.8-33.4,6.4-6.8,17.8-13.8,36.8-13.8,19.4,0,29.8,8,34.6,12.6,7.2,7.2,12.4,18.2,12.4,32,0,11.8-3.6,20.4-10,29.4-5.8,8-12.8,14.8-21.4,23l-14,13.4h46A26,26,0,0,1,937,553.72Z" transform="translate(-733.21 -417.32)" style="fill:#fff"/></svg>