<svg xmlns="http://www.w3.org/2000/svg" viewBox="0 0 333.01 192.11"><rect width="333.01" height="192.11" rx="96.05" style="fill:#fff"/><path d="M118,111.23A21.28,21.28,0,0,1,139.28,90H184.2v1.4c0,16.2-5.8,40.8-20.6,56.2s-31.8,18.2-47.6,18.2c-16,0-33.2-2.6-48.79-18.6-7.8-8-19.6-24.2-19.6-50.8,0-21.79,8-39.19,19.2-50.59,16.4-17,36.59-19.4,52.39-19.4,11,0,25,1.8,37.4,10l.27.18c13.16,8.89,12,28.67-2,36.21l-4.46,2.41a40.38,40.38,0,0,0-11.8-14.4,33.45,33.45,0,0,0-20.4-6.4c-12.2,0-21.2,4-27.6,10.8C83.21,73,79.21,84.35,79.21,96.75c0,15.2,5.59,25,11.19,30.6,7.8,8,16.8,10.4,27,10.4,13.2,0,20.2-4.6,23.2-7.2a31.13,31.13,0,0,0,9.6-15.8H118Z" style="fill:#212529"/><path d="M251.4,162.75h-76l40-43.6c7-7.8,17.6-20.8,21.8-27.2,3-4.79,8-13.39,8-22.59,0-5-2-10.2-5.2-13.2-2.6-2.4-7-3.8-12.2-3.8-5.8,0-9.6,2-12.2,4.8l-.1.12a46.68,46.68,0,0,1-35,16.28h-1.33c1-11.6,5.59-24.8,13.79-33.4,6.41-6.8,17.8-13.8,36.8-13.8,19.4,0,29.8,8,34.6,12.6,7.2,7.2,12.4,18.2,12.4,32,0,11.81-3.6,20.4-10,29.4-5.8,8-12.8,14.8-21.4,23l-14,13.4h46A26,26,0,0,1,251.4,162.75Z" style="fill:#212529"/></svg>